<svg id="Layer_2" data-name="Layer 2" xmlns="http://www.w3.org/2000/svg" viewBox="0 0 534.73 129.58"><defs><style>.cls-1{fill:none;stroke:#fff;stroke-miterlimit:10;}</style></defs><path class="cls-1" d="M451.82,572.14l-2.21,53.13c6.43.06,14.64-1.2,21.08-1.15,2.22,0,4.58,0,6.44-1.21a9.84,9.84,0,0,0,3.14-4A43.59,43.59,0,0,0,484,607.49c1.68-8.75,1.38-18.29-3.23-25.91S460.22,569.17,451.82,572.14Z" transform="translate(-334.58 -496.2)"/><path class="cls-1" d="M458.84,603.6c-.71,5.1-2.84,10.28-1.41,15.22a7.57,7.57,0,0,1,4.51-2.9c3.31-.7,7.38.7,9.77-1.7,1.21-1.23,1.52-3.06,2.18-4.65.57-1.35,1.42-2.56,2.12-3.85a19.66,19.66,0,0,0-.88-19.5c-2.71-4.26-11.69-12.42-16.38-7.3C454.79,583.24,459.64,597.93,458.84,603.6Z" transform="translate(-334.58 -496.2)"/><path class="cls-1" d="M505.75,606.12c-2.56,1.26-4.83,3.79-4.57,6.63a4.69,4.69,0,0,0,1.38,2.94,6,6,0,0,0,3.6,1.47c.71.06,1.43,0,2.13.13,1.36.18,2.83.75,4,.1a9,9,0,0,0,1.44-1.25c1.15-1,2.78-1.44,3.74-2.63,1.54-1.91,1.61-7.26-.66-8.69C514.26,603.17,508.23,604.91,505.75,606.12Z" transform="translate(-334.58 -496.2)"/><path class="cls-1" d="M518.53,586.34a18,18,0,0,0-12.25-1.49c-1,.25-2,.59-3.06.93-2.17.73-4.39,2-6.56,2.71a3.52,3.52,0,0,1,1.6,3.35,20.32,20.32,0,0,1,12.88-1.71,9,9,0,0,1,5.68,3.1c1.5,2.09,1.42,4.88,1.27,7.45" transform="translate(-334.58 -496.2)"/><path class="cls-1" d="M517.39,600.15q-7.56,1.68-15.1,3.45a8.62,8.62,0,0,0-3.45,1.38,8.38,8.38,0,0,0-1.89,2.51,8.79,8.79,0,0,0-1.33,8.55c.51,2,1.11,4.15,2.7,5.48s4.08,1.55,6.28,1.62l4,.12a6.47,6.47,0,0,0,6.62-3.21c1.07-1.28,2.07-3.13,3.15-4.42a22.2,22.2,0,0,0,.51,6.7,7.9,7.9,0,0,1,3.35.24c.85.25,1.81.63,2.58.19a62.68,62.68,0,0,1-1.58-18.53c.16-3.16.57-6.33.13-9.46s-1.9-6.3-4.6-7.93" transform="translate(-334.58 -496.2)"/><path class="cls-1" d="M551.59,590.2c4.17,0,8.33.22,12.49.22,0-1.26,0-3,0-4.31-4.12.74-8.37-1.5-12.47-.61,0-3.12.22-7.15.21-10.27a24.8,24.8,0,0,1-5.57.25l.3,9.81c-2.6-.2-5.28-.09-7.88-.29,0,1.86,0,3.79,0,5.65a22.36,22.36,0,0,1,7.38.6" transform="translate(-334.58 -496.2)"/><path class="cls-1" d="M552,589.76q0,9.22-.58,18.44a19.74,19.74,0,0,0,.13,5.21,6.43,6.43,0,0,0,2.73,4.28,9.55,9.55,0,0,0,4.92.94c2.22,0,4.41-1.43,6.33-2.53l1.4,5.11c-2.6.29-5.29,1-7.85,1.55s-5.36.6-7.67-.63a9.37,9.37,0,0,1-4.53-8.06c0-1.15.1-2.3,0-3.45-.07-1.35-.4-2.66-.54-4-.54-5.25,1.89-10.66.35-15.7" transform="translate(-334.58 -496.2)"/><path class="cls-1" d="M604.22,612c-1.44.57-2.28,2-3.42,3.08a13.46,13.46,0,0,1-5.55,2.56,9.11,9.11,0,0,1-1.92.4,7.06,7.06,0,0,1-4.52-1.79,2.47,2.47,0,0,1-.64-.65,2.61,2.61,0,0,1-.24-1.15l-.15-2.86a3.24,3.24,0,0,1,.41-2.18,2.89,2.89,0,0,1,1-.77c3.45-1.83,7.89-3.82,11.86-4,1.55-.08,2.41-.18,3.08,1.36A27.64,27.64,0,0,1,604.22,612Z" transform="translate(-334.58 -496.2)"/><path class="cls-1" d="M604.9,600.64l-.8-4.37a9,9,0,0,0-1.78-4.59c-1.25-1.37-3.2-1.82-5-2.07a40.64,40.64,0,0,0-4.81-.35,5,5,0,0,0-2,.27,8.13,8.13,0,0,0-1.34.84,14.36,14.36,0,0,1-4.57,1.73,7.59,7.59,0,0,0-.9-4.57c2.89,1.08,5.93-1.12,8.87-2.07,3.19-1,6.63-.72,10-.41a5.34,5.34,0,0,1,2.47.65,5.26,5.26,0,0,1,1.55,2,20,20,0,0,1,3.61,13.53l-.45,19.88a3.32,3.32,0,0,1-.44,1.9c-1,1.34-3.3.32-3.94-1.23s-.36-3.32-.78-4.93c-.06,1-1,1.74-1.91,2.3a27.26,27.26,0,0,1-8.16,3.86c-3,.67-6.31.28-8.56-1.74a13.34,13.34,0,0,1-2.09-2.58c-1.87-2.79-3.66-6.15-2.65-9.35,1.11-3.5,5-5.17,8.42-6.41C594.82,601,599.47,599.52,604.9,600.64Z" transform="translate(-334.58 -496.2)"/><path class="cls-1" d="M696.14,622.23c-1.56-.15-3.49.2-5,.21l-1.77-4.91c-.87-2.4-1.73-4.79-2.55-7.21q-2.52-7.5-4.36-15.22c0-.19-.06-.45.12-.51s-.86-.33-1-.48-.28-.32-.45-.2a.84.84,0,0,0-.28.54c-2,9.2-4.37,18.34-7.21,27.3-1.56.1-3.87.29-5.43.4-2.32-15.77-4.07-34-6.39-49.75a34.13,34.13,0,0,1,5.35-.27" transform="translate(-334.58 -496.2)"/><path class="cls-1" d="M703.07,573a57.6,57.6,0,0,1-6.69-.65c-2.88,12.14-1.29,25.93-3.82,38.15l-.41-1.22a17.14,17.14,0,0,1,.19,4.17,21.53,21.53,0,0,1-2.06-5.51c-.42-1.61-.61-3.28-1-4.91-.3-1.3-.71-2.57-1.12-3.84l-3.09-9.61c-.05-.16-.14-.35-.31-.35s-.12.35,0,.25c-.3-.95-1.47-1-2.46-.93s-2.07.4-2.9-.15c.28,3.62-2.23,6.95-3.29,10.43-.32,1.05-.53,2.13-.76,3.2a49,49,0,0,1-4.08,11.39c-.81-13.35-1.7-27.31-3.39-40.58" transform="translate(-334.58 -496.2)"/><path class="cls-1" d="M691,622.07a17.72,17.72,0,0,0,4.24.25c-.64-16.31,5.53-32.42,6.54-48.71" transform="translate(-334.58 -496.2)"/><path class="cls-1" d="M720.71,607.36a5.53,5.53,0,0,0-2.83.55,3.3,3.3,0,0,0-1.35,2.85,8.74,8.74,0,0,0,.78,3.16,6.4,6.4,0,0,0,1.53,2.56,4.84,4.84,0,0,0,2.23,1c4.38.88,14.3-1.3,13.07-7.43S724.69,607.25,720.71,607.36Z" transform="translate(-334.58 -496.2)"/><path class="cls-1" d="M734.35,615.6c-1,2.57-2.38,5.48-5.06,6.15-1.16.29-2.39.09-3.58.28s-2.54.91-3.86,1.21a8.22,8.22,0,0,1-7.81-3.07A15.45,15.45,0,0,1,711,612a7,7,0,0,1,.21-3.32,7.37,7.37,0,0,1,3.24-3.32,33.1,33.1,0,0,1,10.89-4.5,21.78,21.78,0,0,1,8.32-.18,20.37,20.37,0,0,0-.58-7.21,3.26,3.26,0,0,0-.5-1.18,3,3,0,0,0-1-.76A17.09,17.09,0,0,0,719,590a34.91,34.91,0,0,0-4.92,1.89,8.62,8.62,0,0,0-1-3.88,42.48,42.48,0,0,1,16.36-3.62,7.58,7.58,0,0,1,4.53,1c1.88,1.33,2.31,3.94,3.77,5.73a13.41,13.41,0,0,1,2.24,2.66,6.32,6.32,0,0,1,.4,2.37,143.45,143.45,0,0,1-1.51,26.68l-4.14-1.07C734.57,620.34,734.5,617,734.35,615.6Z" transform="translate(-334.58 -496.2)"/><path class="cls-1" d="M757.27,585.31a45.07,45.07,0,0,0-5.81.09c1.25,8.53,7.93,16.61,10.06,25A41,41,0,0,0,763,616c.83,2,2.27,3.94,2.33,6.14a10.7,10.7,0,0,1,5.35.84c-.12-2.17.78-4.68,1.52-6.73l7.65-21.07a69.69,69.69,0,0,0,2.83-9c-1.94.21-2.33-.12-4.23-.57-2.13,6.22-4.27,12.41-6.4,18.64A67,67,0,0,1,767.64,615c-1.77-4.92-3.65-9.88-5.26-14.86l-2.58-8C759.1,590,758,587.48,757.27,585.31Z" transform="translate(-334.58 -496.2)"/><path class="cls-1" d="M803.84,594.06a2,2,0,0,1,.75-1c.35-.2.79-.2,1.15-.39s.71-.77,1.09-1.12a3.7,3.7,0,0,1,1.64-.76l3.62-1a1.81,1.81,0,0,1,.89-.09,2.61,2.61,0,0,1,1,.77c1.24,1.18,3.27,1.12,4.6,2.21a6.62,6.62,0,0,1,1.79,3.32c.4,1.28.79,2.71.23,3.93l-13.53.13c-1.54,0-3.66.61-4.39-1C802.25,598.06,803.18,594.72,803.84,594.06Z" transform="translate(-334.58 -496.2)"/><path class="cls-1" d="M826.43,603.5l-12.59.67c-4,.21-8,.41-11.85-.55a9.62,9.62,0,0,0,.71,4.92c1.29,3.59,3.35,7.15,6.7,9,4.38,2.37,10,.44,14.81-.75a8.58,8.58,0,0,0,.9,4.67c-3.15,1.49-7.09,3.09-10.57,3.13a15.85,15.85,0,0,1-9.14-3.13,22.63,22.63,0,0,1-8.87-22.81c1.16-5.29,4.57-10.29,9.59-12.3a18.28,18.28,0,0,1,5.22-1.15,15.35,15.35,0,0,1,8.4,1.28,13.88,13.88,0,0,1,6.2,7.65C827.11,597.24,826.06,600.16,826.43,603.5Z" transform="translate(-334.58 -496.2)"/><path class="cls-1" d="M865.28,591.55a16.12,16.12,0,0,0,1-5.14" transform="translate(-334.58 -496.2)"/><path class="cls-1" d="M864.77,590.5a28.91,28.91,0,0,0-3.47-.74L858,589.2a16.33,16.33,0,0,0-2.41-.28c-2.4,0-5.44,2.2-7.63,3.18-1.22.55-1.46,2.31-.83,3.49a7.48,7.48,0,0,0,3,2.6,39,39,0,0,0,6.68,3.35c3.17,1.11,6.77,1.47,9.24,3.75a9.18,9.18,0,0,1,2.7,7.08,15.43,15.43,0,0,1-2.43,7.34,27,27,0,0,1-24.76,1.06,15.34,15.34,0,0,0,1.37-4" transform="translate(-334.58 -496.2)"/><path class="cls-1" d="M866.75,586.18A32.1,32.1,0,0,0,847,587.89a8.52,8.52,0,0,0-3.25,2.13c-1.7,2-1.51,5-1.22,7.57l.21,2a1.59,1.59,0,0,0,.32.94c.43.45,1.19.23,1.78.42a3.56,3.56,0,0,1,1.27,1,8.58,8.58,0,0,0,2.84,1.57l12.58,5c.36,1.07.78,2.25,1.11,3.33a3.75,3.75,0,0,1-.29,3.26,5,5,0,0,1-2.37,1.49c-3,1.18-6.14,2.38-9.39,2.43a7.89,7.89,0,0,1-2.69-.37c-1.24-.43-2.33-1.31-3.62-1.49a3.71,3.71,0,0,1-1.11-.22.73.73,0,0,1-.39-.93" transform="translate(-334.58 -496.2)"/><path class="cls-1" d="M350.26,502.31l-11.68.49a6,6,0,0,1-1.53-.05,5.69,5.69,0,0,0-2-.38c0-1.58,0-3.16,0-4.74,2.78,1.1,5.78.57,8.77.55L371,498c0,1.58-.09,3.11-.09,4.69a20.23,20.23,0,0,1-5.1.12l-9.52-.4c0,5.11-.12,10.34-.43,15.45-.36,5.89.17,11.81.32,17.71a15.08,15.08,0,0,1-.28,4.14c-.63,2.5-.21,5.13-.18,7.71a45.06,45.06,0,0,1-6-.44l.59,0c-.3-5.27.13-10.55.24-15.81C350.71,521.79,351.24,511.6,350.26,502.31Z" transform="translate(-334.58 -496.2)"/><path class="cls-1" d="M387.51,516a17.35,17.35,0,0,0,.64-3c.6-5-1.43-10.12-.9-15.17-1.67-.28-3.91-1.17-5.6-1.11a159.72,159.72,0,0,1,.38,20.75c-.12,1.78-.3,3.56-.41,5.34-.16,2.48-.19,5-.21,7.44a113.21,113.21,0,0,0,.7,17.18,16.4,16.4,0,0,1,5-.24c.3-9.16.2-18.25-.12-27.41,2.1-1.33,4-1.76,6.08-3.09a6.35,6.35,0,0,1,7.82-.65,4.49,4.49,0,0,1,3.13,4.25l.72,3.57c1.27,6.27.06,12.82.12,19.21a15.07,15.07,0,0,1-.43,4.55,38.83,38.83,0,0,1,5.28.17,235.87,235.87,0,0,0,.44-28c0-.78-.07-1.57-.1-2.35a3.52,3.52,0,0,0-.49-2c-.26-.34-.63-.58-.92-.9a7.93,7.93,0,0,1-1-1.77,6.53,6.53,0,0,0-7.06-3.2,11.33,11.33,0,0,0-6.69.86C391.47,511.52,389.33,514.08,387.51,516Z" transform="translate(-334.58 -496.2)"/><path class="cls-1" d="M429.39,524.65c.38-2.93,1.33-6,3.71-7.8a12.15,12.15,0,0,1,6-1.9,8,8,0,0,1,3.16.1c2.5.75,3.73,3.5,4.65,5.94l1.27,3.37A95.15,95.15,0,0,1,429.39,524.65Z" transform="translate(-334.58 -496.2)"/><path class="cls-1" d="M424.41,536.83a10.16,10.16,0,0,0-.41-2.93c-.63-2.76-.35-6.21-.48-9-.11-2.43,1.1-4.71,2.45-6.73a21.9,21.9,0,0,1,6.07-6.39,12.27,12.27,0,0,1,8.47-1.81c3.21.48,6.75,1.16,8.69,3.76.33.43.6.91.93,1.34s.88.94,1.31,1.43a10.43,10.43,0,0,1,2.28,6.11,32.13,32.13,0,0,1-.23,6.72,169.69,169.69,0,0,1-24.49-.58c-.5,2.08.27,4.32,1.1,6.3a12.61,12.61,0,0,0,2.87,4.58,10.38,10.38,0,0,0,2.65,1.66,19.49,19.49,0,0,0,15.85.07,22.83,22.83,0,0,0,1.6,4.81,52.6,52.6,0,0,1-11,2.07,17.11,17.11,0,0,1-10.53-2.35C427.93,543.47,424.07,541.18,424.41,536.83Z" transform="translate(-334.58 -496.2)"/></svg>